<svg width="20" height="20" viewBox="0 0 20 20" fill="none" xmlns="http://www.w3.org/2000/svg">
<path d="M5.78329 17.1917C7.01663 17.9167 8.45829 18.3334 9.99996 18.3334C14.6 18.3334 18.3333 14.6 18.3333 10C18.3333 5.40002 14.6 1.66669 9.99996 1.66669C5.39996 1.66669 1.66663 5.40002 1.66663 10C1.66663 11.5167 2.07498 12.9417 2.78332 14.1667L1.66663 18.3334L5.78329 17.1917Z" stroke="#969696" stroke-width="1.5" stroke-miterlimit="10" stroke-linecap="round" stroke-linejoin="round"/>
<path d="M14.1667 12.6417C14.1667 12.7917 14.1334 12.95 14.0584 13.1C13.9834 13.25 13.8917 13.3917 13.7751 13.525C13.5667 13.75 13.3417 13.9166 13.0917 14.0166C12.8417 14.125 12.5667 14.175 12.275 14.175C11.85 14.175 11.3917 14.075 10.9167 13.8667C10.4334 13.6583 9.95838 13.3833 9.48338 13.0416C9.00004 12.6916 8.55003 12.3 8.1167 11.875C7.68337 11.4416 7.30006 10.9833 6.95006 10.5083C6.6084 10.0333 6.33336 9.5583 6.13336 9.0833C5.93336 8.6083 5.83337 8.14998 5.83337 7.71665C5.83337 7.43332 5.88337 7.15832 5.98337 6.90832C6.08337 6.64998 6.24172 6.41665 6.46672 6.20832C6.73338 5.94165 7.02503 5.81665 7.33336 5.81665C7.45003 5.81665 7.56673 5.84165 7.67506 5.89165C7.78339 5.94165 7.88336 6.01665 7.95836 6.12498L8.92506 7.49163C9.00006 7.59997 9.05835 7.69164 9.09168 7.7833C9.13335 7.87497 9.15002 7.9583 9.15002 8.04164C9.15002 8.14164 9.1167 8.24165 9.05837 8.34165C9.00004 8.44165 8.92506 8.54164 8.82506 8.64164L8.50839 8.97497C8.45839 9.02497 8.44171 9.07498 8.44171 9.14164C8.44171 9.17498 8.45006 9.20831 8.45839 9.24164C8.47506 9.27497 8.48338 9.29998 8.49171 9.32498C8.56671 9.46664 8.70002 9.64163 8.88335 9.8583C9.07502 10.075 9.27505 10.3 9.49172 10.5166C9.71672 10.7416 9.93338 10.9416 10.1584 11.1333C10.375 11.3166 10.5584 11.4416 10.7001 11.5166C10.7251 11.525 10.75 11.5416 10.775 11.55C10.8084 11.5666 10.8417 11.5666 10.8834 11.5666C10.9584 11.5666 11.0084 11.5416 11.0584 11.4916L11.3751 11.175C11.4834 11.0666 11.5834 10.9916 11.675 10.9416C11.775 10.8833 11.8667 10.85 11.975 10.85C12.0584 10.85 12.1417 10.8666 12.2334 10.9083C12.325 10.95 12.4251 11 12.5251 11.075L13.9084 12.0583C14.0167 12.1333 14.0917 12.225 14.1417 12.325C14.1417 12.425 14.1667 12.525 14.1667 12.6417Z" stroke="#969696" stroke-width="1.5" stroke-miterlimit="10"/>
</svg>
